<?xml version="1.0" encoding="UTF-8"?>
<svg width="17px" height="17px" viewBox="0 0 17 17" version="1.1" xmlns="http://www.w3.org/2000/svg" xmlns:xlink="http://www.w3.org/1999/xlink">
    <title>剖面分析</title>
    <g id="接处警7.0基础版" stroke="none" stroke-width="1" fill="none" fill-rule="evenodd">
        <g id="智能消防接处警指挥平台-北京演示2026-04-03" transform="translate(-1445.000000, -1013.000000)" fill="#FFFFFF" fill-rule="nonzero">
            <g id="剖面分析" transform="translate(1445.000000, 1013.000000)">
                <path d="M1.07086614,2.93343849 L9.1023622,5.770347 L9.02204724,15.4233438 L1.07086614,12.0876972 L1.07086614,2.93343849 M0,1.41577287 L0,12.8063091 L10.0714961,17 L10.1732283,5.01419559 L0,1.41577287 Z" id="形状"></path>
                <path d="M3.48031496,6.3977918 L6.69291339,7.60441641 L6.69291339,12.0179811 L3.48031496,10.8113565 L3.48031496,6.3977918 M2.40944882,4.82649842 L2.40944882,11.5299685 L7.76377952,13.5410095 L7.76377952,6.86435332 L2.40944882,4.82649842 Z M5.75590552,2.68138802 L12.1811024,0 L17,2.1451104 L17,6.66056783 L11.1102362,9.65299684 L11.1102362,4.82649842 L5.75590552,2.68138802 Z M11.1102362,11.2618296 L11.1102362,13.4069401 L17,10.1892744 L17,8.04416404 L11.1102362,11.2618296 L11.1102362,11.2618296 Z" id="形状"></path>
            </g>
        </g>
    </g>
</svg>