<?xml version="1.0" encoding="UTF-8"?>
<svg width="20px" height="19px" viewBox="0 0 20 19" version="1.1" xmlns="http://www.w3.org/2000/svg" xmlns:xlink="http://www.w3.org/1999/xlink">
    <title>编组 12</title>
    <g id="接处警7.0基础版" stroke="none" stroke-width="1" fill="none" fill-rule="evenodd">
        <g id="智能消防接处警指挥平台-北京演示2026-04-03" transform="translate(-1227.000000, -1011.000000)">
            <g id="编组-12" transform="translate(1227.000000, 1011.000000)">
                <path d="M5,5.73167799 L14.2238027,5.73167799 C15.6045146,5.73167799 16.7238027,6.85096611 16.7238027,8.23167799 C16.7238027,9.61238986 15.6045146,10.731678 14.2238027,10.731678 L6.23106411,10.731678 C4.85035223,10.731678 3.73106411,11.8509661 3.73106411,13.231678 C3.73106411,14.6123899 4.85035223,15.731678 6.23106411,15.731678 L14.6468092,15.731678 L14.6468092,15.731678" id="路径-9" stroke="#FFFFFF" stroke-width="2"></path>
                <path d="M5.97487373,1.02512627 C7.34170876,2.39196129 7.34170876,4.60803871 5.97487373,5.97487373 L3.5,8.44974747 L1.02512627,5.97487373 C-0.341708755,4.60803871 -0.341708755,2.39196129 1.02512627,1.02512627 C2.39196129,-0.341708755 4.60803871,-0.341708755 5.97487373,1.02512627 Z M3.5,2 C2.67157288,2 2,2.67157288 2,3.5 C2,4.32842712 2.67157288,5 3.5,5 C4.32842712,5 5,4.32842712 5,3.5 C5,2.67157288 4.32842712,2 3.5,2 Z" id="形状结合" fill="#FFFFFF"></path>
                <circle id="椭圆形" stroke="#FFFFFF" stroke-width="2" cx="16.5" cy="15.5" r="2"></circle>
            </g>
        </g>
    </g>
</svg>