<?xml version="1.0" encoding="UTF-8"?>
<svg width="17px" height="17px" viewBox="0 0 17 17" version="1.1" xmlns="http://www.w3.org/2000/svg" xmlns:xlink="http://www.w3.org/1999/xlink">
    <title>形状</title>
    <g id="接处警7.0基础版" stroke="none" stroke-width="1" fill="none" fill-rule="evenodd">
        <g id="智能消防接处警指挥平台-北京演示2026-04-03" transform="translate(-1337.000000, -1012.000000)" fill="#FFFFFF">
            <path d="M1350.40556,1019.50869 C1350.90919,1022.73975 1349.16775,1024.17306 1349.16775,1024.17306 C1347.42631,1026.13231 1344.80938,1025.64781 1344.80938,1025.64781 C1342.8565,1025.32481 1341.93,1024.21344 1341.93,1024.21344 C1340.60188,1023.08294 1340.46056,1021.02381 1340.46056,1021.02381 C1340.34369,1019.50125 1341.12462,1018.15825 1341.12462,1018.15825 C1341.77913,1016.94806 1342.97762,1016.23725 1342.97762,1016.23725 C1344.69037,1015.26825 1346.6815,1015.73256 1346.6815,1015.73256 L1347.46669,1014.96544 C1346.05675,1014.37894 1344.16444,1014.74231 1344.16444,1014.74231 C1341.90981,1015.10675 1340.60188,1017.06494 1340.60188,1017.06494 C1338.95075,1019.40775 1339.55425,1021.79094 1339.55425,1021.79094 C1340.15881,1024.67881 1342.51437,1025.97081 1342.51437,1025.97081 C1345.57437,1027.64744 1348.15094,1026.13231 1348.15094,1026.13231 C1350.74769,1024.82013 1351.35119,1022.29563 1351.35119,1022.29563 C1351.89519,1020.43731 1351.21094,1018.70119 1351.21094,1018.70119 L1350.40556,1019.50869 L1350.40556,1019.50869 Z M1345.8315,1019.59794 C1345.66002,1019.81727 1345.68266,1020.13087 1345.88387,1020.3233 C1346.08508,1020.51573 1346.39937,1020.52437 1346.61084,1020.34328 L1346.61031,1020.34381 L1346.61137,1020.34381 L1348.78631,1018.18056 L1350.18031,1018.27406 L1352.504,1015.88769 L1350.49694,1015.68263 L1350.29187,1013.59375 L1347.87575,1015.92488 L1347.98731,1017.37944 L1345.87931,1019.548 C1345.86235,1019.56327 1345.84655,1019.57979 1345.83203,1019.59741 L1345.8315,1019.59794 Z M1345.5,1029 C1340.80534,1029 1337,1025.19466 1337,1020.5 C1337,1015.80534 1340.80534,1012 1345.5,1012 C1350.19466,1012 1354,1015.80534 1354,1020.5 C1354,1025.19466 1350.19466,1029 1345.5,1029 Z M1346.03656,1018.17631 C1344.08475,1017.99463 1343.39944,1019.28663 1343.39944,1019.28663 C1342.27319,1021.2055 1343.76175,1022.51769 1343.76175,1022.51769 C1345.755,1023.87131 1347.14475,1022.63881 1347.14475,1022.63881 C1348.47287,1021.69 1347.94906,1019.94963 1347.94906,1019.94963 L1346.98325,1020.96325 C1346.90362,1021.2137 1346.77964,1021.4478 1346.61722,1021.65441 L1346.62094,1021.64963 C1345.77519,1022.659 1344.64788,1021.91206 1344.64788,1021.91206 C1343.8425,1021.42756 1344.004,1020.34381 1344.004,1020.34381 C1344.24519,1019.3015 1345.13025,1019.20588 1345.13025,1019.20588 L1346.03656,1018.17525 L1346.03656,1018.17631 Z" id="形状"></path>
        </g>
    </g>
</svg>